<?xml version="1.0" standalone="no"?><!DOCTYPE svg PUBLIC "-//W3C//DTD SVG 1.1//EN" "http://www.w3.org/Graphics/SVG/1.1/DTD/svg11.dtd"><svg t="1574563018137" class="icon" viewBox="0 0 1024 1024" version="1.1" xmlns="http://www.w3.org/2000/svg" p-id="11525" xmlns:xlink="http://www.w3.org/1999/xlink" width="200" height="200"><defs><style type="text/css"></style></defs><path d="M973.10208 630.20032a21.7088 21.7088 0 0 0-20.3008-7.19872c-0.59904 0.1024-56.20224 9.6-132.50048 9.6-128 0-300.8-25.4976-397.50144-147.0976-76.40064-96-93.39904-238.60224-50.60096-424.00256 1.89952-8.09984-0.90112-16.39936-7.19872-21.69856s-14.8992-6.70208-22.59968-3.59936c-3.90144 1.59744-389.09952 166.09792-262.90176 614.49728 68.10112 242.40128 269.50144 328.80128 435.3024 328.80128 178.00192 0 390.00064-101.4016 462.60224-328.09984a22.33856 22.33856 0 0 0-4.3008-21.20192z" fill="#FCD62C" p-id="11526"></path><path d="M923.40224 671.20128c-75.20256 182.5024-259.00032 264.20224-408.6016 264.20224-149.69856 0-331.49952-77.99808-393.09824-296.69888C29.30176 310.4 226.2016 151.79776 319.69792 97.1008c-32.9984 177.30048-9.90208 317.10208 68.59776 415.69792 107.6992 135.30112 294.2976 163.70176 432 163.70176 43.00288 0.09728 79.30368-2.80064 103.10656-5.2992z" fill="#FCD62C" p-id="11527"></path></svg>